<mxfile host="app.diagrams.net" modified="2023-12-22T20:04:36.228Z" agent="Mozilla/5.0 (Windows NT 10.0; Win64; x64) AppleWebKit/537.36 (KHTML, like Gecko) Chrome/120.0.0.0 Safari/537.36" etag="FFbCUh-sm_rraMJzqQEA" version="22.1.11" type="github">
  <diagram id="C5RBs43oDa-KdzZeNtuy" name="Page-1">
    <mxGraphModel dx="398" dy="471" grid="1" gridSize="10" guides="1" tooltips="1" connect="1" arrows="1" fold="1" page="1" pageScale="1" pageWidth="827" pageHeight="1169" math="0" shadow="0">
      <root>
        <mxCell id="WIyWlLk6GJQsqaUBKTNV-0" />
        <mxCell id="WIyWlLk6GJQsqaUBKTNV-1" parent="WIyWlLk6GJQsqaUBKTNV-0" />
        <mxCell id="vFkRtB9mPu9xYrPyxQeL-3" value="" style="edgeStyle=orthogonalEdgeStyle;rounded=0;orthogonalLoop=1;jettySize=auto;html=1;" edge="1" parent="WIyWlLk6GJQsqaUBKTNV-1" source="vFkRtB9mPu9xYrPyxQeL-0" target="vFkRtB9mPu9xYrPyxQeL-2">
          <mxGeometry relative="1" as="geometry" />
        </mxCell>
        <mxCell id="vFkRtB9mPu9xYrPyxQeL-4" style="edgeStyle=orthogonalEdgeStyle;rounded=0;orthogonalLoop=1;jettySize=auto;html=1;" edge="1" parent="WIyWlLk6GJQsqaUBKTNV-1" source="vFkRtB9mPu9xYrPyxQeL-0" target="vFkRtB9mPu9xYrPyxQeL-1">
          <mxGeometry relative="1" as="geometry" />
        </mxCell>
        <mxCell id="vFkRtB9mPu9xYrPyxQeL-0" value="gnome_sort(arr,n,compare,flag)" style="ellipse;whiteSpace=wrap;html=1;" vertex="1" parent="WIyWlLk6GJQsqaUBKTNV-1">
          <mxGeometry x="294" y="190" width="120" height="80" as="geometry" />
        </mxCell>
        <mxCell id="vFkRtB9mPu9xYrPyxQeL-1" value="index=0" style="rounded=0;whiteSpace=wrap;html=1;" vertex="1" parent="WIyWlLk6GJQsqaUBKTNV-1">
          <mxGeometry x="299" y="290" width="110" height="40" as="geometry" />
        </mxCell>
        <mxCell id="vFkRtB9mPu9xYrPyxQeL-6" style="edgeStyle=orthogonalEdgeStyle;rounded=0;orthogonalLoop=1;jettySize=auto;html=1;exitX=1;exitY=0.5;exitDx=0;exitDy=0;entryX=0.5;entryY=0;entryDx=0;entryDy=0;" edge="1" parent="WIyWlLk6GJQsqaUBKTNV-1" source="vFkRtB9mPu9xYrPyxQeL-2" target="vFkRtB9mPu9xYrPyxQeL-5">
          <mxGeometry relative="1" as="geometry" />
        </mxCell>
        <mxCell id="vFkRtB9mPu9xYrPyxQeL-2" value="index&amp;lt;n" style="rhombus;whiteSpace=wrap;html=1;" vertex="1" parent="WIyWlLk6GJQsqaUBKTNV-1">
          <mxGeometry x="314" y="350" width="80" height="80" as="geometry" />
        </mxCell>
        <mxCell id="vFkRtB9mPu9xYrPyxQeL-8" style="edgeStyle=orthogonalEdgeStyle;rounded=0;orthogonalLoop=1;jettySize=auto;html=1;exitX=1;exitY=0.5;exitDx=0;exitDy=0;entryX=0.5;entryY=0;entryDx=0;entryDy=0;" edge="1" parent="WIyWlLk6GJQsqaUBKTNV-1" source="vFkRtB9mPu9xYrPyxQeL-5" target="vFkRtB9mPu9xYrPyxQeL-7">
          <mxGeometry relative="1" as="geometry" />
        </mxCell>
        <mxCell id="vFkRtB9mPu9xYrPyxQeL-12" style="edgeStyle=orthogonalEdgeStyle;rounded=0;orthogonalLoop=1;jettySize=auto;html=1;exitX=0;exitY=0.5;exitDx=0;exitDy=0;entryX=0.5;entryY=0;entryDx=0;entryDy=0;" edge="1" parent="WIyWlLk6GJQsqaUBKTNV-1" source="vFkRtB9mPu9xYrPyxQeL-5" target="vFkRtB9mPu9xYrPyxQeL-10">
          <mxGeometry relative="1" as="geometry">
            <Array as="points">
              <mxPoint x="280" y="510" />
              <mxPoint x="280" y="670" />
              <mxPoint x="354" y="670" />
            </Array>
          </mxGeometry>
        </mxCell>
        <mxCell id="vFkRtB9mPu9xYrPyxQeL-5" value="index==0" style="rhombus;whiteSpace=wrap;html=1;" vertex="1" parent="WIyWlLk6GJQsqaUBKTNV-1">
          <mxGeometry x="314" y="470" width="80" height="80" as="geometry" />
        </mxCell>
        <mxCell id="vFkRtB9mPu9xYrPyxQeL-11" value="" style="edgeStyle=orthogonalEdgeStyle;rounded=0;orthogonalLoop=1;jettySize=auto;html=1;" edge="1" parent="WIyWlLk6GJQsqaUBKTNV-1" source="vFkRtB9mPu9xYrPyxQeL-7" target="vFkRtB9mPu9xYrPyxQeL-10">
          <mxGeometry relative="1" as="geometry" />
        </mxCell>
        <mxCell id="vFkRtB9mPu9xYrPyxQeL-7" value="++index" style="rounded=0;whiteSpace=wrap;html=1;" vertex="1" parent="WIyWlLk6GJQsqaUBKTNV-1">
          <mxGeometry x="294" y="585" width="120" height="60" as="geometry" />
        </mxCell>
        <mxCell id="vFkRtB9mPu9xYrPyxQeL-14" style="edgeStyle=orthogonalEdgeStyle;rounded=0;orthogonalLoop=1;jettySize=auto;html=1;exitX=1;exitY=0.5;exitDx=0;exitDy=0;" edge="1" parent="WIyWlLk6GJQsqaUBKTNV-1" source="vFkRtB9mPu9xYrPyxQeL-10" target="vFkRtB9mPu9xYrPyxQeL-13">
          <mxGeometry relative="1" as="geometry" />
        </mxCell>
        <mxCell id="vFkRtB9mPu9xYrPyxQeL-16" style="edgeStyle=orthogonalEdgeStyle;rounded=0;orthogonalLoop=1;jettySize=auto;html=1;exitX=0;exitY=0.5;exitDx=0;exitDy=0;entryX=0.5;entryY=0;entryDx=0;entryDy=0;" edge="1" parent="WIyWlLk6GJQsqaUBKTNV-1" source="vFkRtB9mPu9xYrPyxQeL-10" target="vFkRtB9mPu9xYrPyxQeL-15">
          <mxGeometry relative="1" as="geometry" />
        </mxCell>
        <mxCell id="vFkRtB9mPu9xYrPyxQeL-10" value="(compare(arr[index],arr[index-1])&amp;gt;0)^flag" style="rhombus;whiteSpace=wrap;html=1;" vertex="1" parent="WIyWlLk6GJQsqaUBKTNV-1">
          <mxGeometry x="199" y="710" width="310" height="80" as="geometry" />
        </mxCell>
        <mxCell id="vFkRtB9mPu9xYrPyxQeL-13" value="++index" style="rounded=0;whiteSpace=wrap;html=1;" vertex="1" parent="WIyWlLk6GJQsqaUBKTNV-1">
          <mxGeometry x="470" y="830" width="120" height="60" as="geometry" />
        </mxCell>
        <mxCell id="vFkRtB9mPu9xYrPyxQeL-18" value="" style="edgeStyle=orthogonalEdgeStyle;rounded=0;orthogonalLoop=1;jettySize=auto;html=1;" edge="1" parent="WIyWlLk6GJQsqaUBKTNV-1" source="vFkRtB9mPu9xYrPyxQeL-15" target="vFkRtB9mPu9xYrPyxQeL-17">
          <mxGeometry relative="1" as="geometry" />
        </mxCell>
        <mxCell id="vFkRtB9mPu9xYrPyxQeL-15" value="swap(arr[index],arr[index-1])" style="shape=process;whiteSpace=wrap;html=1;backgroundOutline=1;" vertex="1" parent="WIyWlLk6GJQsqaUBKTNV-1">
          <mxGeometry x="80" y="820" width="200" height="60" as="geometry" />
        </mxCell>
        <mxCell id="vFkRtB9mPu9xYrPyxQeL-17" value="--index" style="rounded=0;whiteSpace=wrap;html=1;" vertex="1" parent="WIyWlLk6GJQsqaUBKTNV-1">
          <mxGeometry x="120" y="910" width="120" height="60" as="geometry" />
        </mxCell>
      </root>
    </mxGraphModel>
  </diagram>
</mxfile>
